<svg width="23" height="22" viewBox="0 0 23 22" fill="none" xmlns="http://www.w3.org/2000/svg">
<path d="M16.5303 7.69966H5.53076C5.23904 7.69966 4.95926 7.81555 4.75298 8.02183C4.5467 8.22811 4.43081 8.50788 4.43081 8.79961C4.43081 9.09134 4.5467 9.37111 4.75298 9.57739C4.95926 9.78367 5.23904 9.89956 5.53076 9.89956H16.5303C16.822 9.89956 17.1018 9.78367 17.3081 9.57739C17.5143 9.37111 17.6302 9.09134 17.6302 8.79961C17.6302 8.50788 17.5143 8.22811 17.3081 8.02183C17.1018 7.81555 16.822 7.69966 16.5303 7.69966ZM12.1305 12.0995H5.53076C5.23904 12.0995 4.95926 12.2154 4.75298 12.4216C4.5467 12.6279 4.43081 12.9077 4.43081 13.1994C4.43081 13.4911 4.5467 13.7709 4.75298 13.9772C4.95926 14.1835 5.23904 14.2994 5.53076 14.2994H12.1305C12.4222 14.2994 12.702 14.1835 12.9083 13.9772C13.1145 13.7709 13.2304 13.4911 13.2304 13.1994C13.2304 12.9077 13.1145 12.6279 12.9083 12.4216C12.702 12.2154 12.4222 12.0995 12.1305 12.0995ZM11.0305 0C9.58604 0 8.15571 0.284511 6.82119 0.837288C5.48666 1.39007 4.27409 2.20028 3.25269 3.22168C1.18988 5.28449 0.0310036 8.08226 0.0310036 10.9995C0.0213877 13.5394 0.900837 16.0027 2.51689 17.9622L0.316991 20.1621C0.164364 20.3168 0.060973 20.5132 0.0198633 20.7266C-0.0212464 20.94 0.00176751 21.1607 0.0860012 21.3611C0.177361 21.559 0.325465 21.7253 0.511514 21.8389C0.697563 21.9524 0.913166 22.0082 1.13095 21.999H11.0305C13.9478 21.999 16.7455 20.8402 18.8083 18.7773C20.8712 16.7145 22.03 13.9168 22.03 10.9995C22.03 8.08226 20.8712 5.28449 18.8083 3.22168C16.7455 1.15887 13.9478 0 11.0305 0ZM11.0305 19.7991H3.78184L4.80479 18.7762C5.00966 18.5701 5.12465 18.2913 5.12465 18.0007C5.12465 17.7101 5.00966 17.4313 4.80479 17.2252C3.3645 15.7865 2.46759 13.893 2.26686 11.8671C2.06614 9.84132 2.57403 7.80856 3.70399 6.1152C4.83395 4.42185 6.51609 3.17265 8.4638 2.58046C10.4115 1.98826 12.5043 2.08969 14.3856 2.86748C16.2669 3.64526 17.8204 5.05128 18.7813 6.84598C19.7422 8.64068 20.0511 10.713 19.6554 12.7099C19.2597 14.7069 18.1838 16.5048 16.6112 17.7975C15.0385 19.0901 13.0663 19.7975 11.0305 19.7991Z" fill="#FDFDFD"/>
</svg>
