<svg width="22" height="22" viewBox="0 0 22 22" fill="none" xmlns="http://www.w3.org/2000/svg">
<rect width="22" height="22" fill="#1E1E1E"/>
<g id="UI Design x 23.08.23 - 29.08.23">
<path d="M-646 -4360C-646 -4361.1 -645.105 -4362 -644 -4362H16204C16205.1 -4362 16206 -4361.1 16206 -4360V8184C16206 8185.1 16205.1 8186 16204 8186H-644C-645.105 8186 -646 8185.1 -646 8184V-4360Z" fill="#404040"/>
<g id="Landing Page">
<rect width="1440" height="3145" transform="translate(-23 -391)" fill="#0D0D17"/>
<g id="Group 2610232">
<g id="@2" filter="url(#filter0_b_255_563)">
<rect width="202" height="932" transform="translate(-23 -299)" fill="#131722" fill-opacity="0.8"/>
<g id="Frame 4640">
<g id="Frame 4569" opacity="0.8">
<g id="Frame 427321960">
<g id="Group 4487">
<g id="comment 2">
<path id="Vector" d="M11.3154 11.2071C11.8497 10.7724 12.2782 10.2347 12.5719 9.63061C12.8657 9.0265 13.0177 8.37008 13.0177 7.70588C13.0177 6.4578 12.4902 5.26085 11.5512 4.37832C10.6123 3.4958 9.33876 3 8.01088 3C6.68299 3 5.40949 3.4958 4.47054 4.37832C3.53158 5.26085 3.00408 6.4578 3.00408 7.70588C3.00407 8.37008 3.15609 9.0265 3.44981 9.63061C3.74353 10.2347 4.17209 10.7724 4.70639 11.2071C3.30463 11.8037 2.11534 12.7671 1.28072 13.9822C0.446101 15.1972 0.00147386 16.6125 0 18.0588C0 18.3084 0.1055 18.5478 0.293291 18.7243C0.481083 18.9008 0.735783 19 1.00136 19C1.26694 19 1.52164 18.9008 1.70943 18.7243C1.89722 18.5478 2.00272 18.3084 2.00272 18.0588C2.00272 16.5611 2.63572 15.1248 3.76247 14.0658C4.88922 13.0067 6.41742 12.4118 8.01088 12.4118C9.60434 12.4118 11.1325 13.0067 12.2593 14.0658C13.386 15.1248 14.019 16.5611 14.019 18.0588C14.019 18.3084 14.1245 18.5478 14.3123 18.7243C14.5001 18.9008 14.7548 19 15.0204 19C15.286 19 15.5407 18.9008 15.7285 18.7243C15.9163 18.5478 16.0218 18.3084 16.0218 18.0588C16.0203 16.6125 15.5757 15.1972 14.741 13.9822C13.9064 12.7671 12.7171 11.8037 11.3154 11.2071ZM8.01088 10.5294C7.41673 10.5294 6.83592 10.3638 6.3419 10.0536C5.84788 9.74331 5.46284 9.30233 5.23547 8.7864C5.0081 8.27047 4.94861 7.70275 5.06452 7.15504C5.18043 6.60733 5.46655 6.10422 5.88667 5.70935C6.3068 5.31447 6.84208 5.04555 7.42481 4.93661C8.00755 4.82766 8.61157 4.88358 9.16049 5.09728C9.70941 5.31099 10.1786 5.67289 10.5087 6.13721C10.8388 6.60154 11.015 7.14744 11.015 7.70588C11.015 8.45473 10.6985 9.1729 10.1351 9.70242C9.57171 10.2319 8.80761 10.5294 8.01088 10.5294ZM17.7641 10.8306C18.405 10.1523 18.8236 9.3144 18.9696 8.41773C19.1156 7.52106 18.9827 6.60383 18.587 5.77647C18.1913 4.94911 17.5496 4.24687 16.7392 3.75428C15.9288 3.26169 14.9842 2.99976 14.019 3C13.7535 3 13.4988 3.09916 13.311 3.27566C13.1232 3.45217 13.0177 3.69156 13.0177 3.94118C13.0177 4.19079 13.1232 4.43018 13.311 4.60669C13.4988 4.78319 13.7535 4.88235 14.019 4.88235C14.8158 4.88235 15.5799 5.17983 16.1432 5.70935C16.7066 6.23886 17.0231 6.95704 17.0231 7.70588C17.0217 8.20023 16.8822 8.68556 16.6186 9.11334C16.355 9.54112 15.9766 9.89636 15.5211 10.1435C15.3726 10.224 15.2486 10.339 15.1609 10.4774C15.0733 10.6158 15.0249 10.7731 15.0204 10.9341C15.0162 11.0939 15.0554 11.252 15.1342 11.3937C15.213 11.5353 15.329 11.6557 15.471 11.7435L15.8615 11.9882L15.9917 12.0541C17.1987 12.5922 18.217 13.4433 18.9267 14.5071C19.6363 15.571 20.0077 16.8032 19.9972 18.0588C19.9972 18.3084 20.1027 18.5478 20.2904 18.7243C20.4782 18.9008 20.7329 19 20.9985 19C21.2641 19 21.5188 18.9008 21.7066 18.7243C21.8944 18.5478 21.9999 18.3084 21.9999 18.0588C22.0081 16.6145 21.6232 15.1922 20.8818 13.9271C20.1405 12.662 19.0672 11.5961 17.7641 10.8306Z" fill="#FDFDFD"/>
</g>
</g>
</g>
</g>
</g>
</g>
</g>
</g>
<path d="M-644 -4361H16204V-4363H-644V-4361ZM16205 -4360V8184H16207V-4360H16205ZM16204 8185H-644V8187H16204V8185ZM-645 8184V-4360H-647V8184H-645ZM-644 8185C-644.552 8185 -645 8184.55 -645 8184H-647C-647 8185.66 -645.657 8187 -644 8187V8185ZM16205 8184C16205 8184.55 16204.6 8185 16204 8185V8187C16205.7 8187 16207 8185.66 16207 8184H16205ZM16204 -4361C16204.6 -4361 16205 -4360.55 16205 -4360H16207C16207 -4361.66 16205.7 -4363 16204 -4363V-4361ZM-644 -4363C-645.657 -4363 -647 -4361.66 -647 -4360H-645C-645 -4360.55 -644.552 -4361 -644 -4361V-4363Z" fill="white" fill-opacity="0.1"/>
</g>
<defs>
<filter id="filter0_b_255_563" x="-43" y="-319" width="242" height="972" filterUnits="userSpaceOnUse" color-interpolation-filters="sRGB">
<feFlood flood-opacity="0" result="BackgroundImageFix"/>
<feGaussianBlur in="BackgroundImageFix" stdDeviation="10"/>
<feComposite in2="SourceAlpha" operator="in" result="effect1_backgroundBlur_255_563"/>
<feBlend mode="normal" in="SourceGraphic" in2="effect1_backgroundBlur_255_563" result="shape"/>
</filter>
</defs>
</svg>
