<svg width="24" height="24" viewBox="0 0 24 24" fill="none" xmlns="http://www.w3.org/2000/svg">
<g opacity="0.6">
<path d="M19 1.99951H6.26998C5.56817 1.99975 4.88865 2.24602 4.34966 2.69549C3.81066 3.14496 3.4463 3.76917 3.31998 4.45951L2.04998 11.4595C1.97085 11.892 1.98772 12.3365 2.09941 12.7617C2.2111 13.1869 2.41488 13.5823 2.69631 13.9201C2.97775 14.2578 3.32997 14.5295 3.72806 14.7161C4.12614 14.9026 4.56036 14.9994 4.99998 14.9995H9.55998L8.99998 16.4295C8.76704 17.0556 8.68947 17.7289 8.77391 18.3916C8.85835 19.0543 9.10229 19.6866 9.48479 20.2343C9.86729 20.782 10.3769 21.2287 10.97 21.5362C11.5631 21.8436 12.2219 22.0026 12.89 21.9995C13.0823 21.9991 13.2705 21.9432 13.4319 21.8386C13.5933 21.7339 13.7211 21.585 13.8 21.4095L16.65 14.9995H19C19.7956 14.9995 20.5587 14.6834 21.1213 14.1208C21.6839 13.5582 22 12.7952 22 11.9995V4.99951C22 4.20386 21.6839 3.4408 21.1213 2.87819C20.5587 2.31558 19.7956 1.99951 19 1.99951ZM15 13.7895L12.28 19.9095C12.0017 19.8253 11.7435 19.685 11.5215 19.4973C11.2995 19.3095 11.1182 19.0783 10.989 18.8179C10.8597 18.5574 10.7851 18.2733 10.7698 17.9829C10.7545 17.6925 10.7988 17.4021 10.9 17.1295L11.43 15.6995C11.5429 15.3973 11.581 15.0722 11.5411 14.752C11.5012 14.4318 11.3844 14.126 11.2006 13.8608C11.0169 13.5955 10.7718 13.3786 10.4861 13.2287C10.2004 13.0787 9.88264 13.0001 9.55998 12.9995H4.99998C4.85307 12.9998 4.70791 12.9676 4.57482 12.9054C4.44174 12.8432 4.324 12.7524 4.22998 12.6395C4.13364 12.5282 4.06308 12.397 4.02332 12.2552C3.98356 12.1135 3.97559 11.9647 3.99998 11.8195L5.26998 4.81951C5.31257 4.58655 5.43646 4.37627 5.61959 4.22611C5.80271 4.07595 6.03319 3.99565 6.26998 3.99951H15V13.7895ZM20 11.9995C20 12.2647 19.8946 12.5191 19.7071 12.7066C19.5195 12.8942 19.2652 12.9995 19 12.9995H17V3.99951H19C19.2652 3.99951 19.5195 4.10487 19.7071 4.29241C19.8946 4.47994 20 4.7343 20 4.99951V11.9995Z" fill="#FDFDFD"/>
</g>
</svg>
