<svg width="20" height="20" viewBox="0 0 20 20" fill="none" xmlns="http://www.w3.org/2000/svg">
<path d="M19.3 8.07956C19.019 7.7422 18.6674 7.47064 18.27 7.28403C17.8726 7.09742 17.439 7.00031 17 6.99956H12.44L13 5.56956C13.2329 4.94344 13.3105 4.27016 13.2261 3.60748C13.1416 2.94479 12.8977 2.31248 12.5152 1.76479C12.1327 1.21709 11.623 0.770353 11.0299 0.462899C10.4369 0.155446 9.77804 -0.00354771 9.11 -0.00044369C8.91764 -4.23282e-05 8.72948 0.0558316 8.56807 0.160479C8.40666 0.265127 8.27887 0.414106 8.2 0.589556L5.35 6.99956H3C2.20435 6.99956 1.44129 7.31563 0.87868 7.87824C0.316071 8.44084 0 9.20391 0 9.99956V16.9996C0 17.7952 0.316071 18.5583 0.87868 19.1209C1.44129 19.6835 2.20435 19.9996 3 19.9996H15.73C16.4318 19.9993 17.1113 19.753 17.6503 19.3036C18.1893 18.8541 18.5537 18.2299 18.68 17.5396L19.95 10.5396C20.0286 10.1069 20.011 9.66234 19.8987 9.23723C19.7864 8.81213 19.582 8.41691 19.3 8.07956ZM5 17.9996H3C2.73478 17.9996 2.48043 17.8942 2.29289 17.7067C2.10536 17.5191 2 17.2648 2 16.9996V9.99956C2 9.73434 2.10536 9.47999 2.29289 9.29245C2.48043 9.10491 2.73478 8.99956 3 8.99956H5V17.9996ZM18 10.1796L16.73 17.1796C16.6874 17.4125 16.5635 17.6228 16.3804 17.773C16.1973 17.9231 15.9668 18.0034 15.73 17.9996H7V8.20956L9.72 2.08956C9.99998 2.17118 10.26 2.30996 10.4837 2.49714C10.7073 2.68432 10.8897 2.91582 11.0194 3.17705C11.1491 3.43828 11.2232 3.72355 11.2371 4.01486C11.2509 4.30617 11.2043 4.59719 11.1 4.86956L10.57 6.29956C10.4571 6.60181 10.4189 6.9269 10.4589 7.24709C10.4988 7.56727 10.6156 7.87304 10.7993 8.1383C10.983 8.40355 11.2282 8.62042 11.5139 8.7704C11.7996 8.92037 12.1173 8.99899 12.44 8.99956H17C17.1469 8.99932 17.2921 9.03145 17.4252 9.09367C17.5582 9.15589 17.676 9.24667 17.77 9.35956C17.8663 9.47088 17.9369 9.6021 17.9767 9.74385C18.0164 9.8856 18.0244 10.0344 18 10.1796Z" fill="#FDFDFD"/>
</svg>
