<svg width="32" height="32" viewBox="0 0 32 32" fill="none" xmlns="http://www.w3.org/2000/svg">
<path d="M26.0011 14.8397L7.33448 4.06633C7.13179 3.9493 6.90187 3.8877 6.66782 3.8877C6.43377 3.8877 6.20384 3.9493 6.00115 4.06633C5.79768 4.1838 5.62886 4.35295 5.51179 4.55666C5.39472 4.76036 5.33355 4.99138 5.33448 5.22633V26.773C5.33355 27.0079 5.39472 27.239 5.51179 27.4427C5.62886 27.6464 5.79768 27.8155 6.00115 27.933C6.20384 28.05 6.43377 28.1116 6.66782 28.1116C6.90187 28.1116 7.13179 28.05 7.33448 27.933L26.0011 17.1597C26.2063 17.0434 26.377 16.8747 26.4958 16.6709C26.6145 16.4672 26.6771 16.2355 26.6771 15.9997C26.6771 15.7638 26.6145 15.5322 26.4958 15.3284C26.377 15.1246 26.2063 14.956 26.0011 14.8397ZM8.00115 24.4663V7.53299L22.6678 15.9997L8.00115 24.4663Z" fill="#5E5AFF"/>
</svg>
