<svg width="24" height="25" viewBox="0 0 24 25" fill="none" xmlns="http://www.w3.org/2000/svg">
<g opacity="0.9">
<path d="M19.911 16.01H15.381C15.1158 16.01 14.8614 16.1154 14.6739 16.3029C14.4863 16.4904 14.381 16.7448 14.381 17.01C14.381 17.2752 14.4863 17.5296 14.6739 17.7171C14.8614 17.9046 15.1158 18.01 15.381 18.01H17.781C16.6779 19.1627 15.2554 19.9593 13.6961 20.2974C12.1369 20.6355 10.5122 20.4996 9.03075 19.9072C7.54932 19.3149 6.27885 18.2931 5.38257 16.9732C4.48629 15.6532 4.00515 14.0955 4.00098 12.5C4.00098 12.2348 3.89562 11.9804 3.70808 11.7929C3.52055 11.6054 3.26619 11.5 3.00098 11.5C2.73576 11.5 2.48141 11.6054 2.29387 11.7929C2.10633 11.9804 2.00098 12.2348 2.00098 12.5C2.00626 14.4528 2.5832 16.3613 3.66058 17.99C4.73796 19.6187 6.26864 20.8964 8.06372 21.6652C9.8588 22.4341 11.8397 22.6605 13.762 22.3166C15.6843 21.9727 17.4638 21.0735 18.881 19.73V21.5C18.881 21.7652 18.9863 22.0196 19.1739 22.2071C19.3614 22.3946 19.6158 22.5 19.881 22.5C20.1462 22.5 20.4005 22.3946 20.5881 22.2071C20.7756 22.0196 20.881 21.7652 20.881 21.5V17C20.8785 16.7416 20.7761 16.4943 20.5953 16.3097C20.4145 16.1251 20.1692 16.0177 19.911 16.01ZM15.001 12.5C15.001 11.9067 14.825 11.3266 14.4954 10.8333C14.1657 10.3399 13.6972 9.95542 13.149 9.72836C12.6008 9.5013 11.9976 9.44189 11.4157 9.55764C10.8338 9.6734 10.2992 9.95912 9.87966 10.3787C9.4601 10.7982 9.17438 11.3328 9.05862 11.9147C8.94286 12.4967 9.00227 13.0999 9.22934 13.6481C9.4564 14.1962 9.84092 14.6648 10.3343 14.9944C10.8276 15.3241 11.4076 15.5 12.001 15.5C12.7966 15.5 13.5597 15.1839 14.1223 14.6213C14.6849 14.0587 15.001 13.2956 15.001 12.5ZM11.001 12.5C11.001 12.3022 11.0596 12.1089 11.1695 11.9444C11.2794 11.78 11.4356 11.6518 11.6183 11.5761C11.801 11.5004 12.0021 11.4806 12.1961 11.5192C12.39 11.5578 12.5682 11.653 12.7081 11.7929C12.8479 11.9327 12.9432 12.1109 12.9818 12.3049C13.0203 12.4989 13.0005 12.7 12.9249 12.8827C12.8492 13.0654 12.721 13.2216 12.5565 13.3315C12.3921 13.4414 12.1988 13.5 12.001 13.5C11.7358 13.5 11.4814 13.3946 11.2939 13.2071C11.1063 13.0196 11.001 12.7652 11.001 12.5ZM12.001 2.5C9.43736 2.50731 6.97447 3.49891 5.12098 5.27V3.5C5.12098 3.23478 5.01562 2.98043 4.82808 2.79289C4.64055 2.60536 4.38619 2.5 4.12098 2.5C3.85576 2.5 3.60141 2.60536 3.41387 2.79289C3.22633 2.98043 3.12098 3.23478 3.12098 3.5V8C3.12098 8.26522 3.22633 8.51957 3.41387 8.70711C3.60141 8.89464 3.85576 9 4.12098 9H8.62098C8.88619 9 9.14055 8.89464 9.32808 8.70711C9.51562 8.51957 9.62098 8.26522 9.62098 8C9.62098 7.73478 9.51562 7.48043 9.32808 7.29289C9.14055 7.10536 8.88619 7 8.62098 7H6.22098C7.32344 5.84787 8.74507 5.0515 10.3034 4.71311C11.8617 4.37472 13.4856 4.50975 14.9666 5.10086C16.4476 5.69198 17.7182 6.71221 18.6152 8.0306C19.5122 9.349 19.9948 10.9054 20.001 12.5C20.001 12.7652 20.1063 13.0196 20.2939 13.2071C20.4814 13.3946 20.7358 13.5 21.001 13.5C21.2662 13.5 21.5205 13.3946 21.7081 13.2071C21.8956 13.0196 22.001 12.7652 22.001 12.5C22.001 11.1868 21.7423 9.88642 21.2398 8.67317C20.7372 7.45991 20.0006 6.35752 19.072 5.42893C18.1435 4.50035 17.0411 3.76375 15.8278 3.2612C14.6146 2.75866 13.3142 2.5 12.001 2.5Z" fill="#FDFDFD"/>
</g>
</svg>
