<svg width="24" height="24" viewBox="0 0 24 24" fill="none" xmlns="http://www.w3.org/2000/svg">
<path d="M15 7.99951H9C8.73479 7.99951 8.48043 8.10487 8.2929 8.29241C8.10536 8.47994 8 8.7343 8 8.99951V14.9995C8 15.2647 8.10536 15.5191 8.2929 15.7066C8.48043 15.8942 8.73479 15.9995 9 15.9995H15C15.2652 15.9995 15.5196 15.8942 15.7071 15.7066C15.8946 15.5191 16 15.2647 16 14.9995V8.99951C16 8.7343 15.8946 8.47994 15.7071 8.29241C15.5196 8.10487 15.2652 7.99951 15 7.99951ZM14 13.9995H10V9.99951H14V13.9995ZM12 1.99951C10.0222 1.99951 8.08879 2.586 6.4443 3.68482C4.79981 4.78363 3.51809 6.34542 2.76121 8.17268C2.00433 9.99994 1.8063 12.0106 2.19215 13.9504C2.578 15.8902 3.53041 17.6721 4.92894 19.0706C6.32746 20.4691 8.10929 21.4215 10.0491 21.8074C11.9889 22.1932 13.9996 21.9952 15.8268 21.2383C17.6541 20.4814 19.2159 19.1997 20.3147 17.5552C21.4135 15.9107 22 13.9773 22 11.9995C22 10.6863 21.7413 9.38593 21.2388 8.17268C20.7363 6.95942 19.9997 5.85703 19.0711 4.92844C18.1425 3.99986 17.0401 3.26326 15.8268 2.76072C14.6136 2.25817 13.3132 1.99951 12 1.99951ZM12 19.9995C10.4178 19.9995 8.87104 19.5303 7.55544 18.6513C6.23985 17.7722 5.21447 16.5228 4.60897 15.061C4.00347 13.5992 3.84504 11.9906 4.15372 10.4388C4.4624 8.88694 5.22433 7.46148 6.34315 6.34266C7.46197 5.22384 8.88743 4.46191 10.4393 4.15323C11.9911 3.84455 13.5997 4.00297 15.0615 4.60848C16.5233 5.21398 17.7727 6.23936 18.6518 7.55495C19.5308 8.87054 20 10.4173 20 11.9995C20 14.1212 19.1572 16.1561 17.6569 17.6564C16.1566 19.1567 14.1217 19.9995 12 19.9995Z" fill="#5E5AFF"/>
</svg>
