<svg width="22" height="22" viewBox="0 0 22 22" fill="none" xmlns="http://www.w3.org/2000/svg">
<mask id="mask0_624_4207" style="mask-type:alpha" maskUnits="userSpaceOnUse" x="0" y="0" width="22" height="22">
<rect width="22" height="22" fill="#C4C4C4"/>
</mask>
<g mask="url(#mask0_624_4207)">
<path d="M14.1 13.2H7.5C7.20826 13.2 6.92847 13.3159 6.72218 13.5222C6.51589 13.7285 6.4 14.0083 6.4 14.3C6.4 14.5917 6.51589 14.8715 6.72218 15.0778C6.92847 15.2841 7.20826 15.4 7.5 15.4H14.1C14.3917 15.4 14.6715 15.2841 14.8778 15.0778C15.0841 14.8715 15.2 14.5917 15.2 14.3C15.2 14.0083 15.0841 13.7285 14.8778 13.5222C14.6715 13.3159 14.3917 13.2 14.1 13.2ZM14.1 8.8H9.7C9.40826 8.8 9.12847 8.91589 8.92218 9.12218C8.71589 9.32847 8.6 9.60826 8.6 9.9C8.6 10.1917 8.71589 10.4715 8.92218 10.6778C9.12847 10.8841 9.40826 11 9.7 11H14.1C14.3917 11 14.6715 10.8841 14.8778 10.6778C15.0841 10.4715 15.2 10.1917 15.2 9.9C15.2 9.60826 15.0841 9.32847 14.8778 9.12218C14.6715 8.91589 14.3917 8.8 14.1 8.8ZM16.3 2.2H15.002C14.7751 1.5581 14.3551 1.0021 13.7998 0.608232C13.2444 0.214366 12.5808 0.00191346 11.9 0H9.7C9.01916 0.00191346 8.35558 0.214366 7.80023 0.608232C7.24488 1.0021 6.82494 1.5581 6.598 2.2H5.3C4.42479 2.2 3.58542 2.54768 2.96655 3.16655C2.34768 3.78542 2 4.62479 2 5.5V18.7C2 19.5752 2.34768 20.4146 2.96655 21.0335C3.58542 21.6523 4.42479 22 5.3 22H16.3C17.1752 22 18.0146 21.6523 18.6335 21.0335C19.2523 20.4146 19.6 19.5752 19.6 18.7V5.5C19.6 4.62479 19.2523 3.78542 18.6335 3.16655C18.0146 2.54768 17.1752 2.2 16.3 2.2ZM8.6 3.3C8.6 3.00826 8.71589 2.72847 8.92218 2.52218C9.12847 2.31589 9.40826 2.2 9.7 2.2H11.9C12.1917 2.2 12.4715 2.31589 12.6778 2.52218C12.8841 2.72847 13 3.00826 13 3.3V4.4H8.6V3.3ZM17.4 18.7C17.4 18.9917 17.2841 19.2715 17.0778 19.4778C16.8715 19.6841 16.5917 19.8 16.3 19.8H5.3C5.00826 19.8 4.72847 19.6841 4.52218 19.4778C4.31589 19.2715 4.2 18.9917 4.2 18.7V5.5C4.2 5.20826 4.31589 4.92847 4.52218 4.72218C4.72847 4.51589 5.00826 4.4 5.3 4.4H6.4V5.5C6.4 5.79174 6.51589 6.07153 6.72218 6.27782C6.92847 6.48411 7.20826 6.6 7.5 6.6H14.1C14.3917 6.6 14.6715 6.48411 14.8778 6.27782C15.0841 6.07153 15.2 5.79174 15.2 5.5V4.4H16.3C16.5917 4.4 16.8715 4.51589 17.0778 4.72218C17.2841 4.92847 17.4 5.20826 17.4 5.5V18.7Z" fill="#FDFDFD"/>
</g>
</svg>
